PathFileType	4	(X/Y/Z)	Kaydara																																																																																																																									
DataRate	CameraRate	NumFrames	NumMarkers	Units	OrigDataRate	OrigDataStartFrame	OrigNumFrames																																																																																																																					
30	30	6	41	mm	30	21	167																																																																																																																					
Frame#	Time	PAIB_LFHD			PAIB_RFHD			PAIB_LBHD			PAIB_RBHD			PAIB_LFTShould			PAIB_RFTShould			PAIB_LRRShould			PAIB_RRRShould			PAIB_T10			PAIB_STRN			PAIB_TRUN			PAIB_LSHO			PAIB_LUPA			PAIB_LELB			PAIB_LFRM			PAIB_LWRA			PAIB_LWRB			PAIB_LFIN			PAIB_RSHO			PAIB_RUPA			PAIB_RELB			PAIB_RFRM			PAIB_RWRA			PAIB_RWRB			PAIB_RFIN			PAIB_LFWT			PAIB_RFWT			PAIB_LBWT			PAIB_RBWT			PAIB_LTHI			PAIB_LKNE			PAIB_LSHN			PAIB_LANK			PAIB_LHEE			PAIB_LTOE			PAIB_RTHI			PAIB_RKNE			PAIB_RSHN			PAIB_RANK			PAIB_RHEE			PAIB_RTOE		
		X1	Y1	Z1	X2	Y2	Z2	X3	Y3	Z3	X4	Y4	Z4	X5	Y5	Z5	X6	Y6	Z6	X7	Y7	Z7	X8	Y8	Z8	X9	Y9	Z9	X10	Y10	Z10	X11	Y11	Z11	X12	Y12	Z12	X13	Y13	Z13	X14	Y14	Z14	X15	Y15	Z15	X16	Y16	Z16	X17	Y17	Z17	X18	Y18	Z18	X19	Y19	Z19	X20	Y20	Z20	X21	Y21	Z21	X22	Y22	Z22	X23	Y23	Z23	X24	Y24	Z24	X25	Y25	Z25	X26	Y26	Z26	X27	Y27	Z27	X28	Y28	Z28	X29	Y29	Z29	X30	Y30	Z30	X31	Y31	Z31	X32	Y32	Z32	X33	Y33	Z33	X34	Y34	Z34	X35	Y35	Z35	X36	Y36	Z36	X37	Y37	Z37	X38	Y38	Z38	X39	Y39	Z39	X40	Y40	Z40	X41	Y41	Z41
																																																																																																																												
21	0.677	243.07194	1699.92905	-1976.59378	58.22614	1702.61887	-1992.42325	259.90232	1661.48239	-2103.54706	57.89528	1675.5014	-2105.54916	214.5857	1434.77066	-1976.85974	91.10313	1431.53641	-1982.81174	227.70914	1487.91458	-2126.12885	74.34959	1487.11456	-2121.56784	151.27258	1322.53906	-2192.21893	160.60141	1371.15112	-1935.59998	159.29987	1271.9175	-1905.29495	348.35823	1438.45764	-2057.211	400.87383	1210.1445	-2064.8056	412.4295	1127.20001	-2107.33246	441.8544	1014.70139	-2068.97644	403.64803	900.19508	-1974.35776	431.24077	881.8615	-2045.48828	454.61643	847.33887	-1984.77066	-36.8709	1430.14893	-2042.66434	-97.85498	1254.61815	-2083.00674	-119.4322	1138.91434	-2089.34402	-149.7543	1005.26726	-2066.47049	-116.77623	894.58183	-1964.36462	-174.84377	886.93504	-2024.04404	-181.38218	849.54803	-1959.216	265.38443	968.85513	-1937.43591	28.57663	971.97853	-1937.20291	204.07198	1028.36281	-2149.92828	59.54626	1031.70708	-2146.24283	251.69617	750.58746	-2156.81351	284.0189	502.28069	-2074.98444	264.8247	313.02494	-2073.77548	264.75122	128.19585	-2162.32208	209.32959	119.21266	-2208.81104	252.58183	74.90105	-1987.30225	1.12747	732.63367	-2151.96899	-3.3345	487.77573	-2084.4754	55.71851	303.8833	-2074.16748	26.86737	105.80401	-2164.25766	89.44045	113.15376	-2213.92365	41.62523	77.04767	-1990.72464
22	0.71	243.05773	1699.77509	-1975.50873	58.09293	1702.18704	-1991.32446	259.86034	1661.7421	-2102.59445	57.85401	1675.47775	-2104.55643	215.09583	1434.80118	-1976.64093	91.46528	1431.32599	-1982.13043	227.9929	1487.87674	-2125.43289	74.58389	1487.1109	-2120.92865	151.59375	1322.61688	-2191.71188	160.79088	1370.90973	-1935.07507	159.49038	1271.69022	-1904.91455	348.49461	1438.34808	-2056.4592	401.31893	1210.31296	-2064.56833	412.93728	1127.27623	-2106.93726	442.53548	1014.81178	-2068.63205	404.48917	900.23178	-1974.03656	432.11658	881.91391	-2045.11017	456.74831	847.86942	-1985.1889	-36.63401	1429.89609	-2042.08847	-97.34732	1254.37889	-2082.71637	-119.01836	1138.85605	-2089.67133	-148.83626	1004.90227	-2066.62567	-115.46562	894.20853	-1964.83307	-173.52545	886.41991	-2024.53094	-179.90168	848.90945	-1959.56039	265.51952	968.6879	-1936.91681	28.75268	971.84593	-1937.06741	204.55759	1028.4639	-2149.51141	59.9705	1031.81007	-2146.00708	252.04844	750.67345	-2156.65329	284.22527	502.23026	-2075.16754	264.99863	312.95696	-2073.8945	264.84966	128.2036	-2162.3848	209.43035	119.175	-2208.87848	252.63172	74.88513	-1987.3143	1.55815	732.60971	-2151.94336	-2.96702	487.7496	-2084.04938	55.79045	303.81983	-2074.15405	27.01374	105.89404	-2164.28192	89.52333	113.1385	-2213.88138	41.68981	76.99841	-1990.67871
23	0.743	242.87663	1699.75021	-1974.85123	57.90862	1701.89453	-1990.25192	259.61452	1661.91055	-2101.76041	57.49742	1675.44922	-2103.52615	214.58097	1434.82056	-1975.14374	91.62873	1431.2825	-1981.4798	228.1447	1487.99957	-2124.80591	74.73466	1487.15469	-2120.36407	151.91363	1322.73865	-2191.37787	160.84206	1370.84488	-1934.55963	159.72259	1271.67984	-1904.53339	348.74699	1438.6969	-2055.82321	401.53362	1210.52612	-2063.66196	413.30055	1127.52113	-2106.0997	442.91927	1015.04616	-2067.73636	404.98539	900.51689	-1973.11508	432.59998	882.17072	-2044.15878	457.20146	848.19252	-1984.12415	-36.46513	1429.73114	-2041.53015	-96.94816	1254.17557	-2082.46643	-118.42894	1138.62511	-2089.59427	-147.86752	1004.44557	-2066.57394	-114.11767	893.77602	-1964.75906	-172.12416	885.86975	-2024.53827	-178.46121	848.395	-1959.58481	265.80935	968.62816	-1936.68594	29.09707	971.82396	-1936.86249	204.88792	1028.59802	-2149.2363	60.33757	1031.93909	-2145.80048	252.28388	750.85129	-2156.8399	284.45667	502.1674	-2075.36682	265.17431	313.0477	-2073.99994	264.902	128.24651	-2162.42615	209.50935	119.15823	-2208.95065	252.64244	74.90517	-1987.34619	2.15449	732.7459	-2151.97906	-2.74935	487.83745	-2084.16763	55.8789	303.9233	-2074.17969	27.09578	105.82985	-2164.15466	89.64457	113.1519	-2213.84171	41.68467	77.02116	-1990.672
24	0.777	242.71091	1699.79523	-1974.51584	57.70696	1701.76697	-1989.38919	259.18766	1662.20367	-2101.48483	57.02265	1675.37048	-2102.68494	214.66181	1434.83963	-1974.63211	91.65317	1431.11954	-1981.09924	228.17007	1488.25012	-2124.13406	74.78244	1487.14005	-2119.76135	152.21017	1322.90924	-2190.79224	160.99144	1370.70694	-1934.23294	159.84997	1271.50269	-1904.21051	348.52859	1438.87955	-2054.79004	401.61217	1210.83862	-2062.5087	413.56857	1127.91664	-2105.0296	443.14018	1015.47928	-2066.4238	405.0042	901.01997	-1971.74774	432.81971	882.63336	-2042.67181	457.27692	848.69347	-1982.54883	-36.3672	1429.45313	-2041.02386	-96.55679	1253.83461	-2082.09625	-117.52075	1137.94708	-2088.8501	-146.92909	1003.95287	-2066.2291	-112.81294	893.38676	-1964.37607	-170.77065	885.32158	-2024.15802	-177.07279	847.82494	-1959.21326	266.22627	968.59344	-1936.62552	29.52055	971.81557	-1936.74362	205.11421	1028.70079	-2149.08875	60.58637	1032.00562	-2145.62119	252.55491	751.00388	-2157.27478	284.62749	502.19635	-2075.55542	265.27557	313.07213	-2074.12903	264.90601	128.3935	-2162.43576	209.40931	119.20292	-2208.91876	252.68559	74.88985	-1987.34039	2.45192	732.78313	-2152.02042	-2.66886	487.84721	-2084.66049	55.9546	303.92597	-2074.20807	27.15269	105.8948	-2164.28757	89.75243	113.09746	-2213.85178	41.66139	77.02434	-1990.67444
25	0.81	242.44453	1699.90738	-1974.15924	57.39407	1701.71036	-1988.65204	259.31299	1661.67465	-2099.09943	56.50385	1675.22644	-2101.89774	214.6855	1434.85153	-1974.15741	91.57491	1430.82336	-1980.79834	228.05809	1488.51532	-2123.51517	74.64617	1487.0546	-2119.2366	152.41145	1323.06534	-2190.3952	160.93639	1370.60638	-1933.84216	159.92208	1271.34193	-1903.81409	347.82875	1439.70459	-2056.40381	401.716	1211.22032	-2061.39206	413.82015	1128.35281	-2103.93387	443.27774	1015.9436	-2064.9295	404.93073	901.8895	-1969.99786	432.81029	883.12645	-2040.81161	457.01294	849.33624	-1980.40909	-36.34769	1429.0506	-2040.45639	-96.29353	1253.35678	-2081.63086	-117.26425	1137.6918	-2088.82782	-146.07717	1003.40187	-2065.72464	-111.60241	893.0571	-1963.80493	-169.57991	884.69711	-2023.47672	-175.58159	847.25372	-1958.41156	266.49067	968.5482	-1936.50742	29.88217	971.69937	-1936.65833	205.3454	1028.67294	-2149.01947	60.86035	1031.97914	-2145.54169	252.59932	751.03477	-2157.28195	284.70257	502.20814	-2075.87921	265.3236	313.06534	-2074.27765	264.81476	128.40001	-2162.43042	209.28013	119.2043	-2208.9151	252.70252	74.89448	-1987.34283	2.69074	732.71164	-2151.88324	-2.43239	487.77885	-2084.45587	56.09635	303.87623	-2074.21219	27.16344	105.84153	-2164.207	89.7822	113.09924	-2213.82278	41.69013	77.02133	-1990.67612
26	0.843	242.22792	1700.01526	-1973.81073	57.0285	1701.70822	-1987.97836	258.81683	1661.83746	-2098.81729	56.08469	1675.23499	-2101.20453	214.97053	1435.02914	-1974.3634	91.40133	1430.72617	-1980.45013	227.84866	1488.83621	-2123.04733	74.38605	1486.96686	-2118.74207	152.53359	1323.17947	-2189.96323	160.78964	1370.4599	-1933.4053	159.93162	1271.27754	-1903.53348	347.43233	1440.2977	-2056.08032	401.89762	1211.8	-2060.64423	414.05052	1128.74214	-2102.83829	443.28823	1016.39465	-2063.35068	404.60789	902.76451	-1968.08289	432.72552	883.70796	-2038.81058	456.58085	850.10162	-1978.10547	-36.42983	1428.69553	-2040.02258	-96.02367	1252.85103	-2081.02448	-116.88145	1137.24014	-2088.44131	-145.26494	1002.79991	-2065.01022	-110.35708	892.76093	-1962.8656	-168.31745	883.91869	-2022.45468	-174.30891	846.79558	-1957.42996	266.6618	968.51944	-1936.24268	30.05048	971.66672	-1936.44562	205.65485	1028.74046	-2148.84064	61.11588	1031.99799	-2145.29099	252.61206	751.11435	-2157.22855	284.73391	502.23438	-2075.70328	265.41899	313.10673	-2074.31534	264.80198	128.38586	-2162.46521	209.2318	119.24075	-2208.89297	252.72369	74.87161	-1987.37946	2.90259	732.68341	-2151.69495	-2.08477	487.7924	-2084.05228	56.15025	303.91258	-2074.2276	27.34383	105.91501	-2164.18808	89.84921	113.13934	-2213.83408	41.66638	77.01306	-1990.66757
